<svg width="250" height="250" viewBox="0 0 250 250" fill="none" xmlns="http://www.w3.org/2000/svg">
<rect width="250" height="250" fill="white"/>
<rect x="76.5" y="91.5" width="97" height="67" rx="10.5" fill="white" stroke="#DDDBDB" stroke-width="3" stroke-linecap="round" stroke-linejoin="round"/>
<circle cx="161" cy="104" r="7" fill="#DDDBDB"/>
<path d="M132.923 107.903C133.886 105.968 134.368 105 135.026 104.708C135.549 104.475 136.148 104.478 136.669 104.716C137.323 105.015 137.795 105.987 138.739 107.933L161.742 155.346C162.507 156.922 162.889 157.71 162.776 158.349C162.686 158.86 162.4 159.315 161.98 159.62C161.455 160 160.579 160 158.827 160H112.231C110.462 160 109.577 160 109.051 159.616C108.629 159.309 108.345 158.849 108.257 158.335C108.148 157.693 108.542 156.901 109.33 155.317L132.923 107.903Z" fill="#DDDBDB"/>
<path d="M105.133 128.776C106.053 127.479 106.513 126.831 107.087 126.615C107.547 126.442 108.056 126.445 108.514 126.624C109.086 126.846 109.538 127.5 110.442 128.808L128.488 154.918C129.65 156.599 130.23 157.44 130.182 158.139C130.143 158.697 129.872 159.213 129.435 159.562C128.888 160 127.866 160 125.822 160H89.2682C87.1987 160 86.1639 160 85.6146 159.558C85.1767 159.205 84.9075 158.684 84.873 158.123C84.8297 157.419 85.4281 156.575 86.6249 154.886L105.133 128.776Z" fill="#DDDBDB"/>
</svg>
